<svg width="18" height="20" viewBox="0 0 18 20" fill="none" xmlns="http://www.w3.org/2000/svg">
<path d="M6.99902 14H1.99902V19M10.999 6H15.999V1M1.58203 7.0034C2.14272 5.61566 3.08146 4.41304 4.29157 3.53223C5.50169 2.65141 6.93588 2.12752 8.42878 2.02051C9.92168 1.9135 11.4138 2.2274 12.7371 2.92661C14.0605 3.62582 15.1603 4.68254 15.9131 5.97612M16.4166 12.9971C15.8559 14.3848 14.9171 15.5874 13.707 16.4682C12.4969 17.3491 11.0642 17.8723 9.57129 17.9793C8.07839 18.0863 6.58509 17.7725 5.26172 17.0732C3.93835 16.374 2.83785 15.3175 2.08496 14.0239" stroke="white" stroke-width="2" stroke-linecap="round" stroke-linejoin="round"/>
</svg>
